# xmcd
#
# Track frame offsets:
#	150
#	17805
#	38627
#	59065
#	72232
#	89935
#	110100
#	122972
#	143062
#	162235
#	175687
#	202735
#
# Disc length: 2789 seconds
#
# Revision: 0
# Processed by: cddbd v1.5.2PL0 Copyright (c) Steve Scherf et al.
# Submitted via: audiograbber 1.83.01
#
DISCID=af0ae30c
DTITLE=Ringstad - Mørkt Fastland
DYEAR=1995
DGENRE=Rock
TTITLE0=Preludium
TTITLE1=Jeg Har Et Lys
TTITLE2=Ungdomstid
TTITLE3=Skottevik Blues
TTITLE4=Rock 'N' Roll Er Okey
TTITLE5=Aleine
TTITLE6=Kjeder Meg
TTITLE7=Ta En Dans
TTITLE8=Gatenivå
TTITLE9=Selv De Beste Venner
TTITLE10=Babylon
TTITLE11=Postludium
EXTD=
EXTT0=
EXTT1=
EXTT2=
EXTT3=
EXTT4=
EXTT5=
EXTT6=
EXTT7=
EXTT8=
EXTT9=
EXTT10=
EXTT11=
PLAYORDER=
